<svg id="Layer_2" data-name="Layer 1" xmlns="http://www.w3.org/2000/svg" viewBox="0 0 122.88 122.88"><defs><style>.cls-1{fill:#25d366;}.cls-1,.cls-2{fill-rule:evenodd;}.cls-2{fill:#fff;}</style></defs><title>whatsapp-round-color</title><path class="cls-1" d="M61.44,0A61.44,61.44,0,1,1,0,61.44,61.44,61.44,0,0,1,61.44,0Z"/><path class="cls-2" d="M77,67.57c-.76-.39-4.52-2.23-5.22-2.49s-1.2-.38-1.72.39-2,2.48-2.43,3-.89.58-1.65.19a20.93,20.93,0,0,1-6.14-3.8,23.3,23.3,0,0,1-4.26-5.29A1.1,1.1,0,0,1,55.92,58c.35-.34.76-.89,1.15-1.34a5.34,5.34,0,0,0,.76-1.28,1.43,1.43,0,0,0-.06-1.34c-.2-.38-1.73-4.14-2.35-5.68s-1.26-1.28-1.73-1.31-.95,0-1.46,0a2.82,2.82,0,0,0-2,1,8.58,8.58,0,0,0-2.68,6.38c0,3.76,2.74,7.39,3.12,7.91S56,70.52,63.7,73.82a45.51,45.51,0,0,0,4.35,1.62,10.43,10.43,0,0,0,4.81.3c1.47-.21,4.52-1.84,5.16-3.63a6.37,6.37,0,0,0,.45-3.63c-.18-.34-.69-.53-1.46-.92Zm7.7-28a30.59,30.59,0,0,0-48.13,36.9L32.23,92.3l16.22-4.25a30.61,30.61,0,0,0,14.6,3.72h0A30.59,30.59,0,0,0,84.69,39.55ZM63.07,86.61a25.46,25.46,0,0,1-13-3.54l-.93-.56L39.57,85l2.57-9.38-.6-1A25.41,25.41,0,1,1,63.06,86.61Z"/></svg>
